<svg width="24" height="24" viewBox="0 0 24 24" fill="none" xmlns="http://www.w3.org/2000/svg">
<rect opacity="0.1" width="24" height="24" rx="4" fill="#FF671D"/>
<path d="M7.79351 20.7624L7.58427 19.3486L6.13092 19.5466L6.36278 20.9999L7.79351 20.7624Z" fill="#FF671D"/>
<path d="M19.092 16.7357L18.8601 15.2993L12.5434 16.272L12.7527 17.7027L19.092 16.7357Z" fill="#FF671D"/>
<path d="M10.5077 18.0543L11.9384 17.8394L11.7292 16.4087L10.2758 16.6406L10.5077 18.0543Z" fill="#FF671D"/>
<path d="M10.0611 20.4176L9.82923 18.9812L8.3985 19.2131L8.60774 20.6494L10.0611 20.4176Z" fill="#FF671D"/>
<path d="M5.79694 17.3185L6.01183 18.7493L7.44821 18.54L7.23332 17.0867L5.79694 17.3185Z" fill="#FF671D"/>
<path d="M12.8704 18.5174L13.1022 19.9708L19.4359 18.9811L19.204 17.5674L12.8704 18.5174Z" fill="#FF671D"/>
<path d="M10.8581 20.2993L12.2888 20.0901L12.057 18.6367L10.6432 18.8686L10.8581 20.2993Z" fill="#FF671D"/>
<path d="M8.04694 16.9678L8.27879 18.4212L9.69256 18.1893L9.47767 16.7529L8.04694 16.9678Z" fill="#FF671D"/>
<path d="M6.28279 16.4258L4.51841 4.91772L3.90201 5.03648L5.68335 16.5049L6.28279 16.4258Z" fill="#FF671D"/>
<path d="M7.11461 16.2723L5.22017 3.94995L4.59811 4.06305L6.51518 16.3854L7.11461 16.2723Z" fill="#FF671D"/>
<path d="M8.54996 16.0745L6.53676 3L5.9147 3.09613L7.91094 16.1537L8.54996 16.0745Z" fill="#FF671D"/>
<path d="M9.36492 15.9388L7.52137 4.0293L6.92194 4.12543L8.76548 16.0406L9.36492 15.9388Z" fill="#FF671D"/>
<path d="M10.7777 15.7292L9.14909 5.13159L8.54965 5.22773L10.1557 15.8253L10.7777 15.7292Z" fill="#FF671D"/>
<path d="M11.6107 15.5935L9.90849 4.60571L9.30905 4.70185L11.0112 15.667L11.6107 15.5935Z" fill="#FF671D"/>
</svg>
